<svg width="128" height="128" viewBox="0 0 128 128" fill="none" xmlns="http://www.w3.org/2000/svg">
<path d="M0 34.1333C0 22.1855 0 16.2117 2.32519 11.6482C4.37049 7.63408 7.63408 4.37049 11.6482 2.32519C16.2117 0 22.1855 0 34.1333 0H93.8667C105.814 0 111.788 0 116.352 2.32519C120.366 4.37049 123.63 7.63408 125.675 11.6482C128 16.2117 128 22.1855 128 34.1333V93.8667C128 105.814 128 111.788 125.675 116.352C123.63 120.366 120.366 123.63 116.352 125.675C111.788 128 105.814 128 93.8667 128H34.1333C22.1855 128 16.2117 128 11.6482 125.675C7.63408 123.63 4.37049 120.366 2.32519 116.352C0 111.788 0 105.814 0 93.8667V34.1333Z" fill="url(#paint0_radial_581_1707)"/>
<path d="M0 34.1333C0 22.1855 0 16.2117 2.32519 11.6482C4.37049 7.63408 7.63408 4.37049 11.6482 2.32519C16.2117 0 22.1855 0 34.1333 0H93.8667C105.814 0 111.788 0 116.352 2.32519C120.366 4.37049 123.63 7.63408 125.675 11.6482C128 16.2117 128 22.1855 128 34.1333V93.8667C128 105.814 128 111.788 125.675 116.352C123.63 120.366 120.366 123.63 116.352 125.675C111.788 128 105.814 128 93.8667 128H34.1333C22.1855 128 16.2117 128 11.6482 125.675C7.63408 123.63 4.37049 120.366 2.32519 116.352C0 111.788 0 105.814 0 93.8667V34.1333Z" fill="url(#paint1_linear_581_1707)" fill-opacity="0.2"/>
<path d="M53.2054 71.9188L64.1652 82.8786C63.7004 83.3434 63.468 83.5758 63.2646 83.7631C58.0796 88.535 50.0766 88.4484 44.9961 83.5654C44.7968 83.3738 44.5694 83.1364 44.1148 82.6617L39.8007 78.1567C35.5031 73.669 33.3543 71.4251 32.3925 68.9369C31.1611 65.7508 31.1994 62.2137 32.4994 59.0551C33.5148 56.5882 35.7116 54.3913 40.1053 49.9976L58.3284 31.7745C63.6086 26.4943 66.2488 23.8542 69.2931 22.865C71.971 21.9949 74.8557 21.9949 77.5336 22.865C80.578 23.8542 83.2181 26.4943 88.4983 31.7745L92.7303 36.0066C102.587 45.863 107.515 50.7912 109.361 56.474C110.986 61.4728 110.986 66.8575 109.361 71.8562C107.515 77.5391 102.587 82.4673 92.7303 92.3237L81.9279 103.126C72.1398 112.882 56.2784 112.795 46.5973 102.933V102.933C46.5856 102.922 46.6007 102.903 46.6154 102.911C49.1462 104.261 50.4254 104.94 51.6962 105.27C54.6398 106.035 57.7679 105.57 60.3616 103.981C61.4937 103.288 62.5303 102.252 64.6036 100.178L88.8404 75.9415C93.0646 71.7173 95.1767 69.6052 95.9681 67.1697C96.6641 65.0274 96.6641 62.7197 95.9681 60.5774C95.1767 58.1418 93.0646 56.0298 88.8405 51.8056L87.1135 50.0787C82.1853 45.1505 79.7212 42.6864 76.8798 41.7631C74.3804 40.951 71.6881 40.951 69.1887 41.7631C66.3473 42.6864 63.8832 45.1505 58.955 50.0787L53.2054 55.8282C50.3893 58.6443 48.9813 60.0524 48.4537 61.6761C47.9896 63.1043 47.9896 64.6428 48.4537 66.071C48.9813 67.6947 50.3893 69.1027 53.2054 71.9188Z" fill="url(#paint2_radial_581_1707)"/>
<path d="M74.7946 56.0811L63.8348 45.1213C64.2996 44.6565 64.532 44.4241 64.7354 44.2368C69.9204 39.4649 77.9234 39.5515 83.0039 44.4345C83.2032 44.626 83.4306 44.8635 83.8852 45.3382L88.1993 49.8432C92.4969 54.3309 94.6457 56.5748 95.6075 59.063C96.8389 62.2491 96.8007 65.7862 95.5006 68.9448C94.4852 71.4117 92.2884 73.6086 87.8947 78.0023L69.6716 96.2253C64.3914 101.506 61.7512 104.146 58.7069 105.135C56.0289 106.005 53.1443 106.005 50.4664 105.135C47.422 104.146 44.7819 101.506 39.5017 96.2253L35.2697 91.9933C25.4133 82.1369 20.485 77.2087 18.6386 71.5258C17.0144 66.5271 17.0144 61.1424 18.6386 56.1437C20.485 50.4608 25.4133 45.5326 35.2697 35.6762L46.0958 24.8501C54.8046 16.1413 68.3573 15.2612 78.0457 22.1655C78.7244 22.6492 78.1774 23.4569 77.381 23.2113V23.2113C73.6685 22.0665 69.6344 22.7211 66.4744 24.9812C65.6399 25.5781 64.8411 26.3769 63.2435 27.9745L39.1596 52.0584C34.9354 56.2826 32.8233 58.3947 32.0319 60.8302C31.3359 62.9725 31.3359 65.2802 32.0319 67.4225C32.8233 69.858 34.9354 71.9701 39.1595 76.1943L40.8865 77.9212C45.8147 82.8494 48.2788 85.3135 51.1202 86.2368C53.6196 87.0489 56.3119 87.0489 58.8113 86.2368C61.6527 85.3135 64.1168 82.8494 69.045 77.9212L74.7946 72.1717C77.6107 69.3556 79.0187 67.9475 79.5463 66.3238C80.0104 64.8956 80.0104 63.3571 79.5463 61.9289C79.0187 60.3052 77.6107 58.8972 74.7946 56.0811Z" fill="url(#paint3_radial_581_1707)"/>
<path d="M74.7946 56.0811L63.8348 45.1213C64.2996 44.6565 64.532 44.4241 64.7354 44.2368C69.9204 39.4649 77.9234 39.5515 83.0039 44.4345C83.2032 44.626 83.4306 44.8635 83.8852 45.3382L88.1993 49.8432C92.4969 54.3309 94.6457 56.5748 95.6075 59.063C96.8389 62.2491 96.8007 65.7862 95.5006 68.9448C94.4852 71.4117 92.2884 73.6086 87.8947 78.0023L69.6716 96.2253C64.3914 101.506 61.7512 104.146 58.7069 105.135C56.0289 106.005 53.1443 106.005 50.4664 105.135C47.422 104.146 44.7819 101.506 39.5017 96.2253L35.2697 91.9933C25.4133 82.1369 20.485 77.2087 18.6386 71.5258C17.0144 66.5271 17.0144 61.1424 18.6386 56.1437C20.485 50.4608 25.4133 45.5326 35.2697 35.6762L46.0958 24.8501C54.8046 16.1413 68.3573 15.2612 78.0457 22.1655C78.7244 22.6492 78.1774 23.4569 77.381 23.2113V23.2113C73.6685 22.0665 69.6344 22.7211 66.4744 24.9812C65.6399 25.5781 64.8411 26.3769 63.2435 27.9745L39.1596 52.0584C34.9354 56.2826 32.8233 58.3947 32.0319 60.8302C31.3359 62.9725 31.3359 65.2802 32.0319 67.4225C32.8233 69.858 34.9354 71.9701 39.1595 76.1943L40.8865 77.9212C45.8147 82.8494 48.2788 85.3135 51.1202 86.2368C53.6196 87.0489 56.3119 87.0489 58.8113 86.2368C61.6527 85.3135 64.1168 82.8494 69.045 77.9212L74.7946 72.1717C77.6107 69.3556 79.0187 67.9475 79.5463 66.3238C80.0104 64.8956 80.0104 63.3571 79.5463 61.9289C79.0187 60.3052 77.6107 58.8972 74.7946 56.0811Z" fill="url(#paint4_radial_581_1707)" fill-opacity="0.2"/>
<defs>
<radialGradient id="paint0_radial_581_1707" cx="0" cy="0" r="1" gradientUnits="userSpaceOnUse" gradientTransform="translate(64 64) rotate(90) scale(64)">
<stop stop-color="#ECCCFE"/>
<stop offset="1" stop-color="#F3EBF8"/>
</radialGradient>
<linearGradient id="paint1_linear_581_1707" x1="8.88888" y1="3.55556" x2="124.444" y2="126.222" gradientUnits="userSpaceOnUse">
<stop stop-opacity="0"/>
<stop offset="1" stop-color="#180563" stop-opacity="0.83"/>
</linearGradient>
<radialGradient id="paint2_radial_581_1707" cx="0" cy="0" r="1" gradientUnits="userSpaceOnUse" gradientTransform="translate(84.2166 -0.841736) rotate(113.52) scale(131.717 93.8939)">
<stop stop-color="#C284E7"/>
<stop offset="0.542291" stop-color="#A66ACA"/>
<stop offset="1" stop-color="#725088"/>
</radialGradient>
<radialGradient id="paint3_radial_581_1707" cx="0" cy="0" r="1" gradientUnits="userSpaceOnUse" gradientTransform="translate(75.2002 51.9065) rotate(-169.695) scale(40.0663 47.8711)">
<stop stop-color="#804F9E"/>
<stop offset="1" stop-color="#B98AD6"/>
<stop offset="1.0001" stop-color="#B98AD6"/>
</radialGradient>
<radialGradient id="paint4_radial_581_1707" cx="0" cy="0" r="1" gradientUnits="userSpaceOnUse" gradientTransform="translate(53.6984 26.8211) rotate(132.709) scale(31.7005 28.3082)">
<stop/>
<stop offset="1" stop-opacity="0"/>
</radialGradient>
</defs>
</svg>
