<svg width="48" height="48" viewBox="0 0 48 48" fill="none" xmlns="http://www.w3.org/2000/svg">
<g clip-path="url(#clip0_121_1419)">
<g filter="url(#filter0_f_121_1419)">
<ellipse cx="24.5" cy="29.5" rx="12.5" ry="5.5" fill="url(#paint0_radial_121_1419)"/>
</g>
<path d="M12.5 31.875H35.25L38.75 38H9L12.5 31.875Z" fill="url(#paint1_radial_121_1419)"/>
<foreignObject x="6.75" y="6" width="34.25" height="38.25"><div xmlns="http://www.w3.org/1999/xhtml" style="backdrop-filter:blur(2px);clip-path:url(#bgblur_1_121_1419_clip_path);height:100%;width:100%"></div></foreignObject><g filter="url(#filter1_d_121_1419)" data-figma-bg-blur-radius="4">
<circle cx="23.875" cy="23.125" r="13.125" fill="url(#paint2_linear_121_1419)" shape-rendering="crispEdges"/>
<circle cx="23.875" cy="23.125" r="12.625" stroke="url(#paint3_linear_121_1419)" shape-rendering="crispEdges"/>
</g>
<g filter="url(#filter2_di_121_1419)">
<path d="M23.3995 16.7135C23.5491 16.2529 24.2009 16.2529 24.3505 16.7135L25.5308 20.346C25.5977 20.552 25.7897 20.6915 26.0063 20.6915H29.8257C30.3101 20.6915 30.5115 21.3113 30.1196 21.596L27.0297 23.841C26.8544 23.9683 26.7811 24.194 26.848 24.4L28.0283 28.0325C28.178 28.4931 27.6507 28.8762 27.2589 28.5915L24.1689 26.3465C23.9936 26.2192 23.7564 26.2192 23.5811 26.3465L20.4911 28.5915C20.0993 28.8762 19.572 28.4931 19.7217 28.0325L20.902 24.4C20.9689 24.194 20.8956 23.9683 20.7203 23.841L17.6304 21.596C17.2385 21.3113 17.4399 20.6915 17.9243 20.6915H21.7437C21.9603 20.6915 22.1523 20.552 22.2192 20.346L23.3995 16.7135Z" fill="url(#paint4_linear_121_1419)" shape-rendering="crispEdges"/>
</g>
</g>
<defs>
<filter id="filter0_f_121_1419" x="-4" y="8" width="57" height="43" filterUnits="userSpaceOnUse" color-interpolation-filters="sRGB">
<feFlood flood-opacity="0" result="BackgroundImageFix"/>
<feBlend mode="normal" in="SourceGraphic" in2="BackgroundImageFix" result="shape"/>
<feGaussianBlur stdDeviation="8" result="effect1_foregroundBlur_121_1419"/>
</filter>
<filter id="filter1_d_121_1419" x="6.75" y="6" width="34.25" height="38.25" filterUnits="userSpaceOnUse" color-interpolation-filters="sRGB">
<feFlood flood-opacity="0" result="BackgroundImageFix"/>
<feColorMatrix in="SourceAlpha" type="matrix" values="0 0 0 0 0 0 0 0 0 0 0 0 0 0 0 0 0 0 127 0" result="hardAlpha"/>
<feOffset dy="4"/>
<feGaussianBlur stdDeviation="2"/>
<feComposite in2="hardAlpha" operator="out"/>
<feColorMatrix type="matrix" values="0 0 0 0 0 0 0 0 0 0 0 0 0 0 0 0 0 0 0.25 0"/>
<feBlend mode="normal" in2="BackgroundImageFix" result="effect1_dropShadow_121_1419"/>
<feBlend mode="normal" in="SourceGraphic" in2="effect1_dropShadow_121_1419" result="shape"/>
</filter>
<clipPath id="bgblur_1_121_1419_clip_path" transform="translate(-6.75 -6)"><circle cx="23.875" cy="23.125" r="13.125"/>
</clipPath><filter id="filter2_di_121_1419" x="15.9233" y="15.868" width="15.9034" height="16.8212" filterUnits="userSpaceOnUse" color-interpolation-filters="sRGB">
<feFlood flood-opacity="0" result="BackgroundImageFix"/>
<feColorMatrix in="SourceAlpha" type="matrix" values="0 0 0 0 0 0 0 0 0 0 0 0 0 0 0 0 0 0 127 0" result="hardAlpha"/>
<feOffset dy="1"/>
<feGaussianBlur stdDeviation="0.75"/>
<feComposite in2="hardAlpha" operator="out"/>
<feColorMatrix type="matrix" values="0 0 0 0 0 0 0 0 0 0 0 0 0 0 0 0 0 0 0.25 0"/>
<feBlend mode="normal" in2="BackgroundImageFix" result="effect1_dropShadow_121_1419"/>
<feBlend mode="normal" in="SourceGraphic" in2="effect1_dropShadow_121_1419" result="shape"/>
<feColorMatrix in="SourceAlpha" type="matrix" values="0 0 0 0 0 0 0 0 0 0 0 0 0 0 0 0 0 0 127 0" result="hardAlpha"/>
<feOffset dy="8"/>
<feGaussianBlur stdDeviation="2"/>
<feComposite in2="hardAlpha" operator="arithmetic" k2="-1" k3="1"/>
<feColorMatrix type="matrix" values="0 0 0 0 1 0 0 0 0 1 0 0 0 0 1 0 0 0 0.25 0"/>
<feBlend mode="normal" in2="shape" result="effect2_innerShadow_121_1419"/>
</filter>
<radialGradient id="paint0_radial_121_1419" cx="0" cy="0" r="1" gradientTransform="matrix(12.5 5.5 -12.5 5.5 24.5 29.5)" gradientUnits="userSpaceOnUse">
<stop stop-color="#F9C7FF"/>
<stop offset="0.5" stop-color="#FF63D6"/>
<stop offset="1" stop-color="#FF005C"/>
</radialGradient>
<radialGradient id="paint1_radial_121_1419" cx="0" cy="0" r="1" gradientTransform="matrix(14.875 3.0625 -14.875 3.0625 23.875 34.9375)" gradientUnits="userSpaceOnUse">
<stop stop-color="#F9C7FF"/>
<stop offset="0.5" stop-color="#FF63D6"/>
<stop offset="1" stop-color="#FF005C"/>
</radialGradient>
<linearGradient id="paint2_linear_121_1419" x1="6.8125" y1="38.875" x2="37" y2="10" gradientUnits="userSpaceOnUse">
<stop stop-color="white" stop-opacity="0.2"/>
<stop offset="1" stop-color="white" stop-opacity="0.5"/>
</linearGradient>
<linearGradient id="paint3_linear_121_1419" x1="34.375" y1="38.875" x2="10.75" y2="10.6562" gradientUnits="userSpaceOnUse">
<stop stop-color="white" stop-opacity="0"/>
<stop offset="1" stop-color="white"/>
</linearGradient>
<linearGradient id="paint4_linear_121_1419" x1="13.6375" y1="32.575" x2="31.75" y2="15.25" gradientUnits="userSpaceOnUse">
<stop stop-color="white" stop-opacity="0.2"/>
<stop offset="1" stop-color="white" stop-opacity="0.5"/>
</linearGradient>
<clipPath id="clip0_121_1419">
<rect width="48" height="48" fill="white"/>
</clipPath>
</defs>
</svg>
