<svg width="48" height="48" viewBox="0 0 48 48" fill="none" xmlns="http://www.w3.org/2000/svg">
<g clip-path="url(#clip0_18_601)">
<g filter="url(#filter0_f_18_601)">
<ellipse cx="21.0001" cy="25.8961" rx="11" ry="10" fill="url(#paint0_linear_18_601)"/>
</g>
<path d="M17.8638 16.1311C18.0119 14.3935 19.6056 13.1476 21.3276 13.4234L26.438 14.2427C27.1855 14.3626 27.8603 14.7605 28.3266 15.357L35.6395 24.7129C36.6597 26.0182 36.4286 27.9036 35.1234 28.924L29.575 33.2609C28.2697 34.2812 26.3844 34.0501 25.364 32.7447L18.051 23.3902C17.5847 22.7937 17.361 22.0425 17.4252 21.288L17.8638 16.1311Z" fill="url(#paint1_linear_18_601)"/>
<foreignObject x="6.25261" y="7.91302" width="25.3391" height="38.6402"><div xmlns="http://www.w3.org/1999/xhtml" style="backdrop-filter:blur(2px);clip-path:url(#bgblur_1_18_601_clip_path);height:100%;width:100%"></div></foreignObject><g filter="url(#filter1_d_18_601)" data-figma-bg-blur-radius="4">
<mask id="path-3-inside-1_18_601" fill="white">
<path d="M19.5637 12.366C20.4632 11.6291 21.7999 11.8121 22.4682 12.7636L27.2277 19.5412C27.5177 19.9541 27.6417 20.4615 27.5733 20.9615L25.4016 36.8243C25.2516 37.9184 24.2429 38.6842 23.1488 38.5346L11.9815 37.0057C10.8873 36.8559 10.1217 35.8471 10.2713 34.7529L12.4429 18.8911C12.5113 18.391 12.7663 17.9347 13.1568 17.6148L19.5637 12.366ZM20.4808 16.0557C19.8389 15.9681 19.2478 16.4168 19.1597 17.0587C19.0718 17.7007 19.5206 18.2926 20.1625 18.3807C20.8048 18.4687 21.3968 18.0192 21.4847 17.377C21.5724 16.7349 21.1229 16.1436 20.4808 16.0557Z"/>
</mask>
<path d="M19.5637 12.366C20.4632 11.6291 21.7999 11.8121 22.4682 12.7636L27.2277 19.5412C27.5177 19.9541 27.6417 20.4615 27.5733 20.9615L25.4016 36.8243C25.2516 37.9184 24.2429 38.6842 23.1488 38.5346L11.9815 37.0057C10.8873 36.8559 10.1217 35.8471 10.2713 34.7529L12.4429 18.8911C12.5113 18.391 12.7663 17.9347 13.1568 17.6148L19.5637 12.366ZM20.4808 16.0557C19.8389 15.9681 19.2478 16.4168 19.1597 17.0587C19.0718 17.7007 19.5206 18.2926 20.1625 18.3807C20.8048 18.4687 21.3968 18.0192 21.4847 17.377C21.5724 16.7349 21.1229 16.1436 20.4808 16.0557Z" fill="url(#paint2_linear_18_601)" shape-rendering="crispEdges"/>
<path d="M19.5637 12.366L18.93 11.5924L18.9299 11.5924L19.5637 12.366ZM22.4682 12.7636L23.2866 12.1889L23.2865 12.1889L22.4682 12.7636ZM27.2277 19.5412L26.4093 20.1159L26.4093 20.1159L27.2277 19.5412ZM27.5733 20.9615L28.5641 21.0972L28.5641 21.0969L27.5733 20.9615ZM25.4016 36.8243L26.3924 36.9601L26.3924 36.96L25.4016 36.8243ZM23.1488 38.5346L23.0132 39.5253L23.0134 39.5253L23.1488 38.5346ZM10.2713 34.7529L9.28053 34.6172L9.2805 34.6174L10.2713 34.7529ZM13.1568 17.6148L12.523 16.8412L12.523 16.8413L13.1568 17.6148ZM20.4808 16.0557L20.6165 15.065L20.6161 15.0649L20.4808 16.0557ZM19.1597 17.0587L18.169 16.9227L18.169 16.923L19.1597 17.0587ZM20.1625 18.3807L20.0265 19.3714L20.0269 19.3715L20.1625 18.3807ZM21.4847 17.377L22.4755 17.5126L22.4755 17.5123L21.4847 17.377ZM19.5637 12.366L20.1973 13.1396C20.6472 12.7711 21.3158 12.8627 21.6499 13.3384L22.4682 12.7636L23.2865 12.1889C22.284 10.7615 20.2792 10.4872 18.93 11.5924L19.5637 12.366ZM22.4682 12.7636L21.6498 13.3383L26.4093 20.1159L27.2277 19.5412L28.046 18.9665L23.2866 12.1889L22.4682 12.7636ZM27.2277 19.5412L26.4093 20.1159C26.555 20.3233 26.6166 20.5772 26.5826 20.8261L27.5733 20.9615L28.5641 21.0969C28.6668 20.3459 28.4805 19.585 28.046 18.9664L27.2277 19.5412ZM27.5733 20.9615L26.5826 20.8259L24.4109 36.6887L25.4016 36.8243L26.3924 36.96L28.5641 21.0972L27.5733 20.9615ZM25.4016 36.8243L24.4109 36.6885C24.3359 37.2355 23.8313 37.6186 23.2843 37.5438L23.1488 38.5346L23.0134 39.5253C24.6545 39.7497 26.1674 38.6012 26.3924 36.9601L25.4016 36.8243ZM23.1488 38.5346L23.2845 37.5438L12.1172 36.0149L11.9815 37.0057L11.8459 37.9964L23.0132 39.5253L23.1488 38.5346ZM11.9815 37.0057L12.1172 36.0149C11.5703 35.9401 11.1872 35.4357 11.2621 34.8883L10.2713 34.7529L9.2805 34.6174C9.05614 36.2585 10.2043 37.7717 11.8459 37.9964L11.9815 37.0057ZM10.2713 34.7529L11.262 34.8885L13.4336 19.0267L12.4429 18.8911L11.4521 18.7554L9.28053 34.6172L10.2713 34.7529ZM12.4429 18.8911L13.4336 19.0267C13.4679 18.7762 13.5957 18.548 13.7906 18.3883L13.1568 17.6148L12.523 16.8413C11.937 17.3214 11.5547 18.0057 11.4521 18.7554L12.4429 18.8911ZM13.1568 17.6148L13.7905 18.3883L20.1974 13.1395L19.5637 12.366L18.9299 11.5924L12.523 16.8412L13.1568 17.6148ZM20.4808 16.0557L20.6161 15.0649C19.4273 14.9027 18.3322 15.7339 18.169 16.9227L19.1597 17.0587L20.1505 17.1946C20.1635 17.0997 20.2505 17.0336 20.3456 17.0465L20.4808 16.0557ZM19.1597 17.0587L18.169 16.923C18.0063 18.1116 18.837 19.2081 20.0265 19.3714L20.1625 18.3807L20.2986 17.39C20.2041 17.3771 20.1374 17.2899 20.1505 17.1943L19.1597 17.0587ZM20.1625 18.3807L20.0269 19.3715C21.2163 19.5343 22.3127 18.702 22.4755 17.5126L21.4847 17.377L20.494 17.2413C20.481 17.3364 20.3932 17.403 20.2982 17.39L20.1625 18.3807ZM21.4847 17.377L22.4755 17.5123C22.638 16.3225 21.805 15.2277 20.6165 15.065L20.4808 16.0557L20.3452 17.0465C20.4409 17.0596 20.5068 17.1473 20.4939 17.2417L21.4847 17.377Z" fill="url(#paint3_linear_18_601)" mask="url(#path-3-inside-1_18_601)"/>
</g>
</g>
<defs>
<filter id="filter0_f_18_601" x="-5.99989" y="-0.103882" width="54" height="52" filterUnits="userSpaceOnUse" color-interpolation-filters="sRGB">
<feFlood flood-opacity="0" result="BackgroundImageFix"/>
<feBlend mode="normal" in="SourceGraphic" in2="BackgroundImageFix" result="shape"/>
<feGaussianBlur stdDeviation="8" result="effect1_foregroundBlur_18_601"/>
</filter>
<filter id="filter1_d_18_601" x="6.25261" y="7.91302" width="25.3391" height="38.6402" filterUnits="userSpaceOnUse" color-interpolation-filters="sRGB">
<feFlood flood-opacity="0" result="BackgroundImageFix"/>
<feColorMatrix in="SourceAlpha" type="matrix" values="0 0 0 0 0 0 0 0 0 0 0 0 0 0 0 0 0 0 127 0" result="hardAlpha"/>
<feOffset dy="4"/>
<feGaussianBlur stdDeviation="2"/>
<feComposite in2="hardAlpha" operator="out"/>
<feColorMatrix type="matrix" values="0 0 0 0 0 0 0 0 0 0 0 0 0 0 0 0 0 0 0.25 0"/>
<feBlend mode="normal" in2="BackgroundImageFix" result="effect1_dropShadow_18_601"/>
<feBlend mode="normal" in="SourceGraphic" in2="effect1_dropShadow_18_601" result="shape"/>
</filter>
<clipPath id="bgblur_1_18_601_clip_path" transform="translate(-6.25261 -7.91302)"><path d="M19.5637 12.366C20.4632 11.6291 21.7999 11.8121 22.4682 12.7636L27.2277 19.5412C27.5177 19.9541 27.6417 20.4615 27.5733 20.9615L25.4016 36.8243C25.2516 37.9184 24.2429 38.6842 23.1488 38.5346L11.9815 37.0057C10.8873 36.8559 10.1217 35.8471 10.2713 34.7529L12.4429 18.8911C12.5113 18.391 12.7663 17.9347 13.1568 17.6148L19.5637 12.366ZM20.4808 16.0557C19.8389 15.9681 19.2478 16.4168 19.1597 17.0587C19.0718 17.7007 19.5206 18.2926 20.1625 18.3807C20.8048 18.4687 21.3968 18.0192 21.4847 17.377C21.5724 16.7349 21.1229 16.1436 20.4808 16.0557Z"/>
</clipPath><linearGradient id="paint0_linear_18_601" x1="10.0001" y1="15.8961" x2="29.9096" y2="37.7966" gradientUnits="userSpaceOnUse">
<stop stop-color="#BE93E4"/>
<stop offset="1" stop-color="#8145B5"/>
</linearGradient>
<linearGradient id="paint1_linear_18_601" x1="12.7709" y1="20.2615" x2="36.429" y2="15.3083" gradientUnits="userSpaceOnUse">
<stop stop-color="#BE93E4"/>
<stop offset="1" stop-color="#8145B5"/>
</linearGradient>
<linearGradient id="paint2_linear_18_601" x1="7.37671" y1="39.0075" x2="34.6843" y2="28.2738" gradientUnits="userSpaceOnUse">
<stop stop-color="white" stop-opacity="0.2"/>
<stop offset="1" stop-color="white" stop-opacity="0.5"/>
</linearGradient>
<linearGradient id="paint3_linear_18_601" x1="23.2636" y1="41.1825" x2="3.19872" y2="22.6244" gradientUnits="userSpaceOnUse">
<stop stop-color="white" stop-opacity="0"/>
<stop offset="1" stop-color="white"/>
</linearGradient>
<clipPath id="clip0_18_601">
<rect width="48" height="48" fill="white"/>
</clipPath>
</defs>
</svg>
