<svg width="48" height="48" viewBox="0 0 48 48" fill="none" xmlns="http://www.w3.org/2000/svg">
<g clip-path="url(#clip0_18_607)">
<g filter="url(#filter0_f_18_607)">
<ellipse cx="25" cy="24.5" rx="8" ry="7.5" fill="url(#paint0_linear_18_607)"/>
</g>
<path d="M32 37.4C32 37.7314 31.7314 38 31.4 38L16.6 38C16.2686 38 16 37.7314 16 37.4C16 37.0686 16.2686 36.8 16.6 36.8L17.2 36.8C17.8627 36.8 18.4 36.2627 18.4 35.6L18.4 31.2609C18.4 30.4402 18.6524 29.6394 19.1231 28.967L20.7231 26.6813C22.3155 24.4065 25.6845 24.4065 27.2769 26.6813L28.8769 28.967C29.3476 29.6394 29.6 30.4402 29.6 31.2609L29.6 35.6C29.6 36.2627 30.1373 36.8 30.8 36.8L31.4 36.8C31.7314 36.8 32 37.0686 32 37.4Z" fill="url(#paint1_linear_18_607)"/>
<foreignObject x="10" y="7" width="28" height="29.0248"><div xmlns="http://www.w3.org/1999/xhtml" style="backdrop-filter:blur(2px);clip-path:url(#bgblur_1_18_607_clip_path);height:100%;width:100%"></div></foreignObject><g filter="url(#filter1_d_18_607)" data-figma-bg-blur-radius="4">
<path d="M14 11.75C14 11.3358 14.3358 11 14.75 11H33.25C33.6642 11 34 11.3358 34 11.75C34 12.1642 33.6642 12.5 33.25 12.5H32.5C31.6716 12.5 31 13.1716 31 14V19.7391C31 20.5598 30.7476 21.3606 30.2769 22.033L27.2769 26.3187C25.6845 28.5935 22.3155 28.5935 20.7231 26.3187L17.7231 22.033C17.2525 21.3606 17 20.5598 17 19.7391V14C17 13.1716 16.3284 12.5 15.5 12.5H14.75C14.3358 12.5 14 12.1642 14 11.75Z" fill="url(#paint2_linear_18_607)" shape-rendering="crispEdges"/>
<path d="M14.75 11.5H33.25C33.3881 11.5 33.5 11.6119 33.5 11.75C33.5 11.8881 33.3881 12 33.25 12H32.5C31.3954 12 30.5 12.8954 30.5 14V19.7393C30.5 20.4573 30.279 21.1578 29.8672 21.7461L26.8672 26.0322C25.4738 28.0224 22.5262 28.0224 21.1328 26.0322L18.1328 21.7461C17.7211 21.1578 17.5 20.4573 17.5 19.7393V14C17.5 12.8954 16.6046 12 15.5 12H14.75C14.6119 12 14.5 11.8881 14.5 11.75C14.5 11.6119 14.6119 11.5 14.75 11.5Z" stroke="url(#paint3_linear_18_607)" shape-rendering="crispEdges"/>
</g>
</g>
<defs>
<filter id="filter0_f_18_607" x="1.00002" y="1" width="48" height="47" filterUnits="userSpaceOnUse" color-interpolation-filters="sRGB">
<feFlood flood-opacity="0" result="BackgroundImageFix"/>
<feBlend mode="normal" in="SourceGraphic" in2="BackgroundImageFix" result="shape"/>
<feGaussianBlur stdDeviation="8" result="effect1_foregroundBlur_18_607"/>
</filter>
<filter id="filter1_d_18_607" x="10" y="7" width="28" height="29.0248" filterUnits="userSpaceOnUse" color-interpolation-filters="sRGB">
<feFlood flood-opacity="0" result="BackgroundImageFix"/>
<feColorMatrix in="SourceAlpha" type="matrix" values="0 0 0 0 0 0 0 0 0 0 0 0 0 0 0 0 0 0 127 0" result="hardAlpha"/>
<feOffset dy="4"/>
<feGaussianBlur stdDeviation="2"/>
<feComposite in2="hardAlpha" operator="out"/>
<feColorMatrix type="matrix" values="0 0 0 0 0 0 0 0 0 0 0 0 0 0 0 0 0 0 0.25 0"/>
<feBlend mode="normal" in2="BackgroundImageFix" result="effect1_dropShadow_18_607"/>
<feBlend mode="normal" in="SourceGraphic" in2="effect1_dropShadow_18_607" result="shape"/>
</filter>
<clipPath id="bgblur_1_18_607_clip_path" transform="translate(-10 -7)"><path d="M14 11.75C14 11.3358 14.3358 11 14.75 11H33.25C33.6642 11 34 11.3358 34 11.75C34 12.1642 33.6642 12.5 33.25 12.5H32.5C31.6716 12.5 31 13.1716 31 14V19.7391C31 20.5598 30.7476 21.3606 30.2769 22.033L27.2769 26.3187C25.6845 28.5935 22.3155 28.5935 20.7231 26.3187L17.7231 22.033C17.2525 21.3606 17 20.5598 17 19.7391V14C17 13.1716 16.3284 12.5 15.5 12.5H14.75C14.3358 12.5 14 12.1642 14 11.75Z"/>
</clipPath><linearGradient id="paint0_linear_18_607" x1="17" y1="17" x2="31.9688" y2="32.9667" gradientUnits="userSpaceOnUse">
<stop stop-color="#BE93E4"/>
<stop offset="1" stop-color="#8145B5"/>
</linearGradient>
<linearGradient id="paint1_linear_18_607" x1="32" y1="38" x2="16" y2="22" gradientUnits="userSpaceOnUse">
<stop stop-color="#BE93E4"/>
<stop offset="1" stop-color="#8145B5"/>
</linearGradient>
<linearGradient id="paint2_linear_18_607" x1="11" y1="33" x2="34" y2="11" gradientUnits="userSpaceOnUse">
<stop stop-color="white" stop-opacity="0.2"/>
<stop offset="1" stop-color="white" stop-opacity="0.5"/>
</linearGradient>
<linearGradient id="paint3_linear_18_607" x1="32" y1="33" x2="14" y2="11.5" gradientUnits="userSpaceOnUse">
<stop stop-color="white" stop-opacity="0"/>
<stop offset="1" stop-color="white"/>
</linearGradient>
<clipPath id="clip0_18_607">
<rect width="48" height="48" fill="white"/>
</clipPath>
</defs>
</svg>
